<mxfile host="app.diagrams.net" agent="Mozilla/5.0 (Windows NT 10.0; Win64; x64; rv:132.0) Gecko/20100101 Firefox/132.0" version="24.8.4">
  <diagram name="Page-1" id="5gHeJlP7h0Javl4f0Di0">
    <mxGraphModel dx="819" dy="450" grid="0" gridSize="10" guides="1" tooltips="1" connect="1" arrows="1" fold="1" page="1" pageScale="1" pageWidth="827" pageHeight="1169" math="0" shadow="0">
      <root>
        <mxCell id="0" />
        <mxCell id="1" parent="0" />
        <mxCell id="_ZnmS-q5QcMvQ2T7AAOQ-108" value="" style="edgeStyle=orthogonalEdgeStyle;rounded=0;orthogonalLoop=1;jettySize=auto;html=1;startArrow=ERmandOne;startFill=0;endArrow=ERzeroToMany;endFill=0;fontFamily=Tahoma;exitX=0.762;exitY=0;exitDx=0;exitDy=0;exitPerimeter=0;" parent="1" source="_ZnmS-q5QcMvQ2T7AAOQ-39" edge="1">
          <mxGeometry relative="1" as="geometry">
            <mxPoint x="559" y="460" as="sourcePoint" />
            <mxPoint x="570" y="440" as="targetPoint" />
            <Array as="points" />
          </mxGeometry>
        </mxCell>
        <mxCell id="FFgvEOGn2QU7lJat-oed-9" style="edgeStyle=orthogonalEdgeStyle;rounded=0;orthogonalLoop=1;jettySize=auto;html=1;endArrow=ERmandOne;endFill=0;startArrow=ERmandOne;startFill=0;fontFamily=Tahoma;exitX=0.143;exitY=0;exitDx=0;exitDy=0;exitPerimeter=0;" parent="1" source="_ZnmS-q5QcMvQ2T7AAOQ-39" edge="1">
          <mxGeometry relative="1" as="geometry">
            <mxPoint x="440" y="460" as="sourcePoint" />
            <mxPoint x="440" y="440" as="targetPoint" />
          </mxGeometry>
        </mxCell>
        <mxCell id="_ZnmS-q5QcMvQ2T7AAOQ-39" value="Coach" style="shape=table;startSize=30;container=1;collapsible=1;childLayout=tableLayout;fixedRows=1;rowLines=0;fontStyle=1;align=center;resizeLast=1;html=1;fontFamily=Tahoma;" parent="1" vertex="1">
          <mxGeometry x="410" y="480" width="210" height="100" as="geometry" />
        </mxCell>
        <mxCell id="_ZnmS-q5QcMvQ2T7AAOQ-40" value="PK&#xa;FK" style="shape=tableRow;horizontal=0;startSize=30;swimlaneHead=0;swimlaneBody=0;fillColor=none;collapsible=0;dropTarget=0;points=[[0,0.5],[1,0.5]];portConstraint=eastwest;top=0;left=0;right=0;bottom=1;fontFamily=Tahoma;fontStyle=1" parent="_ZnmS-q5QcMvQ2T7AAOQ-39" vertex="1">
          <mxGeometry y="30" width="210" height="40" as="geometry" />
        </mxCell>
        <mxCell id="_ZnmS-q5QcMvQ2T7AAOQ-41" value="int" style="shape=partialRectangle;connectable=0;fillColor=none;top=0;left=0;bottom=0;right=0;fontStyle=1;overflow=hidden;whiteSpace=wrap;html=1;fontFamily=Tahoma;" parent="_ZnmS-q5QcMvQ2T7AAOQ-40" vertex="1">
          <mxGeometry x="30" width="40" height="40" as="geometry">
            <mxRectangle width="40" height="40" as="alternateBounds" />
          </mxGeometry>
        </mxCell>
        <mxCell id="_ZnmS-q5QcMvQ2T7AAOQ-42" value="coachId = personId" style="shape=partialRectangle;connectable=0;fillColor=none;top=0;left=0;bottom=0;right=0;align=left;spacingLeft=6;fontStyle=5;overflow=hidden;whiteSpace=wrap;html=1;fontFamily=Tahoma;" parent="_ZnmS-q5QcMvQ2T7AAOQ-40" vertex="1">
          <mxGeometry x="70" width="140" height="40" as="geometry">
            <mxRectangle width="140" height="40" as="alternateBounds" />
          </mxGeometry>
        </mxCell>
        <mxCell id="_ZnmS-q5QcMvQ2T7AAOQ-43" value="" style="shape=tableRow;horizontal=0;startSize=30;swimlaneHead=0;swimlaneBody=0;fillColor=none;collapsible=0;dropTarget=0;points=[[0,0.5],[1,0.5]];portConstraint=eastwest;top=0;left=0;right=0;bottom=0;fontFamily=Tahoma;" parent="_ZnmS-q5QcMvQ2T7AAOQ-39" vertex="1">
          <mxGeometry y="70" width="210" height="30" as="geometry" />
        </mxCell>
        <mxCell id="_ZnmS-q5QcMvQ2T7AAOQ-44" value="date" style="shape=partialRectangle;connectable=0;fillColor=none;top=0;left=0;bottom=0;right=0;editable=1;overflow=hidden;whiteSpace=wrap;html=1;fontFamily=Tahoma;" parent="_ZnmS-q5QcMvQ2T7AAOQ-43" vertex="1">
          <mxGeometry x="30" width="40" height="30" as="geometry">
            <mxRectangle width="40" height="30" as="alternateBounds" />
          </mxGeometry>
        </mxCell>
        <mxCell id="_ZnmS-q5QcMvQ2T7AAOQ-45" value="roleStart" style="shape=partialRectangle;connectable=0;fillColor=none;top=0;left=0;bottom=0;right=0;align=left;spacingLeft=6;overflow=hidden;whiteSpace=wrap;html=1;fontStyle=1;fontFamily=Tahoma;" parent="_ZnmS-q5QcMvQ2T7AAOQ-43" vertex="1">
          <mxGeometry x="70" width="140" height="30" as="geometry">
            <mxRectangle width="140" height="30" as="alternateBounds" />
          </mxGeometry>
        </mxCell>
        <mxCell id="1CGnsKS_cR44dBJx2GGT-14" style="edgeStyle=orthogonalEdgeStyle;rounded=0;orthogonalLoop=1;jettySize=auto;html=1;startArrow=ERmandOne;startFill=0;endArrow=ERzeroToMany;endFill=0;exitX=0.5;exitY=1;exitDx=0;exitDy=0;fontFamily=Tahoma;" parent="1" source="_ZnmS-q5QcMvQ2T7AAOQ-58" target="1CGnsKS_cR44dBJx2GGT-3" edge="1">
          <mxGeometry relative="1" as="geometry">
            <mxPoint x="289" y="620" as="sourcePoint" />
            <mxPoint x="99" y="650" as="targetPoint" />
          </mxGeometry>
        </mxCell>
        <mxCell id="_ZnmS-q5QcMvQ2T7AAOQ-58" value="Player" style="shape=table;startSize=30;container=1;collapsible=1;childLayout=tableLayout;fixedRows=1;rowLines=0;fontStyle=1;align=center;resizeLast=1;html=1;fontFamily=Tahoma;" parent="1" vertex="1">
          <mxGeometry x="150" y="480" width="210" height="130" as="geometry" />
        </mxCell>
        <mxCell id="_ZnmS-q5QcMvQ2T7AAOQ-59" value="PK&#xa;FK" style="shape=tableRow;horizontal=0;startSize=30;swimlaneHead=0;swimlaneBody=0;fillColor=none;collapsible=0;dropTarget=0;points=[[0,0.5],[1,0.5]];portConstraint=eastwest;top=0;left=0;right=0;bottom=1;fontFamily=Tahoma;fontStyle=1" parent="_ZnmS-q5QcMvQ2T7AAOQ-58" vertex="1">
          <mxGeometry y="30" width="210" height="40" as="geometry" />
        </mxCell>
        <mxCell id="_ZnmS-q5QcMvQ2T7AAOQ-60" value="int" style="shape=partialRectangle;connectable=0;fillColor=none;top=0;left=0;bottom=0;right=0;fontStyle=1;overflow=hidden;whiteSpace=wrap;html=1;fontFamily=Tahoma;" parent="_ZnmS-q5QcMvQ2T7AAOQ-59" vertex="1">
          <mxGeometry x="30" width="40" height="40" as="geometry">
            <mxRectangle width="40" height="40" as="alternateBounds" />
          </mxGeometry>
        </mxCell>
        <mxCell id="_ZnmS-q5QcMvQ2T7AAOQ-61" value="playerID = person&lt;span style=&quot;background-color: initial;&quot;&gt;Id&lt;/span&gt;" style="shape=partialRectangle;connectable=0;fillColor=none;top=0;left=0;bottom=0;right=0;align=left;spacingLeft=6;fontStyle=5;overflow=hidden;whiteSpace=wrap;html=1;fontFamily=Tahoma;" parent="_ZnmS-q5QcMvQ2T7AAOQ-59" vertex="1">
          <mxGeometry x="70" width="140" height="40" as="geometry">
            <mxRectangle width="140" height="40" as="alternateBounds" />
          </mxGeometry>
        </mxCell>
        <mxCell id="_ZnmS-q5QcMvQ2T7AAOQ-62" value="" style="shape=tableRow;horizontal=0;startSize=30;swimlaneHead=0;swimlaneBody=0;fillColor=none;collapsible=0;dropTarget=0;points=[[0,0.5],[1,0.5]];portConstraint=eastwest;top=0;left=0;right=0;bottom=0;fontFamily=Tahoma;" parent="_ZnmS-q5QcMvQ2T7AAOQ-58" vertex="1">
          <mxGeometry y="70" width="210" height="30" as="geometry" />
        </mxCell>
        <mxCell id="_ZnmS-q5QcMvQ2T7AAOQ-63" value="date" style="shape=partialRectangle;connectable=0;fillColor=none;top=0;left=0;bottom=0;right=0;editable=1;overflow=hidden;whiteSpace=wrap;html=1;fontFamily=Tahoma;" parent="_ZnmS-q5QcMvQ2T7AAOQ-62" vertex="1">
          <mxGeometry x="30" width="40" height="30" as="geometry">
            <mxRectangle width="40" height="30" as="alternateBounds" />
          </mxGeometry>
        </mxCell>
        <mxCell id="_ZnmS-q5QcMvQ2T7AAOQ-64" value="DoB" style="shape=partialRectangle;connectable=0;fillColor=none;top=0;left=0;bottom=0;right=0;align=left;spacingLeft=6;overflow=hidden;whiteSpace=wrap;html=1;fontStyle=1;fontFamily=Tahoma;" parent="_ZnmS-q5QcMvQ2T7AAOQ-62" vertex="1">
          <mxGeometry x="70" width="140" height="30" as="geometry">
            <mxRectangle width="140" height="30" as="alternateBounds" />
          </mxGeometry>
        </mxCell>
        <mxCell id="FFgvEOGn2QU7lJat-oed-31" value="FK" style="shape=tableRow;horizontal=0;startSize=30;swimlaneHead=0;swimlaneBody=0;fillColor=none;collapsible=0;dropTarget=0;points=[[0,0.5],[1,0.5]];portConstraint=eastwest;top=0;left=0;right=0;bottom=0;fontFamily=Tahoma;" parent="_ZnmS-q5QcMvQ2T7AAOQ-58" vertex="1">
          <mxGeometry y="100" width="210" height="30" as="geometry" />
        </mxCell>
        <mxCell id="FFgvEOGn2QU7lJat-oed-32" value="text" style="shape=partialRectangle;connectable=0;fillColor=none;top=0;left=0;bottom=0;right=0;fontStyle=0;overflow=hidden;whiteSpace=wrap;html=1;fontFamily=Tahoma;" parent="FFgvEOGn2QU7lJat-oed-31" vertex="1">
          <mxGeometry x="30" width="40" height="30" as="geometry">
            <mxRectangle width="40" height="30" as="alternateBounds" />
          </mxGeometry>
        </mxCell>
        <mxCell id="FFgvEOGn2QU7lJat-oed-33" value="schoolName" style="shape=partialRectangle;connectable=0;fillColor=none;top=0;left=0;bottom=0;right=0;align=left;spacingLeft=6;fontStyle=0;overflow=hidden;whiteSpace=wrap;html=1;fontFamily=Tahoma;" parent="FFgvEOGn2QU7lJat-oed-31" vertex="1">
          <mxGeometry x="70" width="140" height="30" as="geometry">
            <mxRectangle width="140" height="30" as="alternateBounds" />
          </mxGeometry>
        </mxCell>
        <mxCell id="_ZnmS-q5QcMvQ2T7AAOQ-73" value="Team" style="shape=table;startSize=30;container=1;collapsible=1;childLayout=tableLayout;fixedRows=1;rowLines=0;fontStyle=1;align=center;resizeLast=1;html=1;fontFamily=Tahoma;" parent="1" vertex="1">
          <mxGeometry x="440" y="750" width="150" height="120" as="geometry" />
        </mxCell>
        <mxCell id="_ZnmS-q5QcMvQ2T7AAOQ-77" value="PK" style="shape=tableRow;horizontal=0;startSize=30;swimlaneHead=0;swimlaneBody=0;fillColor=none;collapsible=0;dropTarget=0;points=[[0,0.5],[1,0.5]];portConstraint=eastwest;top=0;left=0;right=0;bottom=0;fontFamily=Tahoma;fontStyle=1" parent="_ZnmS-q5QcMvQ2T7AAOQ-73" vertex="1">
          <mxGeometry y="30" width="150" height="30" as="geometry" />
        </mxCell>
        <mxCell id="_ZnmS-q5QcMvQ2T7AAOQ-78" value="&lt;b&gt;text&lt;/b&gt;" style="shape=partialRectangle;connectable=0;fillColor=none;top=0;left=0;bottom=0;right=0;editable=1;overflow=hidden;whiteSpace=wrap;html=1;fontFamily=Tahoma;" parent="_ZnmS-q5QcMvQ2T7AAOQ-77" vertex="1">
          <mxGeometry x="30" width="40" height="30" as="geometry">
            <mxRectangle width="40" height="30" as="alternateBounds" />
          </mxGeometry>
        </mxCell>
        <mxCell id="_ZnmS-q5QcMvQ2T7AAOQ-79" value="&lt;b&gt;name&lt;/b&gt;" style="shape=partialRectangle;connectable=0;fillColor=none;top=0;left=0;bottom=0;right=0;align=left;spacingLeft=6;overflow=hidden;whiteSpace=wrap;html=1;fontFamily=Tahoma;fontStyle=4" parent="_ZnmS-q5QcMvQ2T7AAOQ-77" vertex="1">
          <mxGeometry x="70" width="80" height="30" as="geometry">
            <mxRectangle width="80" height="30" as="alternateBounds" />
          </mxGeometry>
        </mxCell>
        <mxCell id="_ZnmS-q5QcMvQ2T7AAOQ-89" value="" style="shape=tableRow;horizontal=0;startSize=30;swimlaneHead=0;swimlaneBody=0;fillColor=none;collapsible=0;dropTarget=0;points=[[0,0.5],[1,0.5]];portConstraint=eastwest;top=0;left=0;right=0;bottom=0;fontFamily=Tahoma;" parent="_ZnmS-q5QcMvQ2T7AAOQ-73" vertex="1">
          <mxGeometry y="60" width="150" height="30" as="geometry" />
        </mxCell>
        <mxCell id="_ZnmS-q5QcMvQ2T7AAOQ-90" value="&lt;div&gt;date&lt;/div&gt;" style="shape=partialRectangle;connectable=0;fillColor=none;top=0;left=0;bottom=0;right=0;fontStyle=0;overflow=hidden;whiteSpace=wrap;html=1;fontFamily=Tahoma;" parent="_ZnmS-q5QcMvQ2T7AAOQ-89" vertex="1">
          <mxGeometry x="30" width="40" height="30" as="geometry">
            <mxRectangle width="40" height="30" as="alternateBounds" />
          </mxGeometry>
        </mxCell>
        <mxCell id="_ZnmS-q5QcMvQ2T7AAOQ-91" value="year" style="shape=partialRectangle;connectable=0;fillColor=none;top=0;left=0;bottom=0;right=0;align=left;spacingLeft=6;fontStyle=1;overflow=hidden;whiteSpace=wrap;html=1;fontFamily=Tahoma;" parent="_ZnmS-q5QcMvQ2T7AAOQ-89" vertex="1">
          <mxGeometry x="70" width="80" height="30" as="geometry">
            <mxRectangle width="80" height="30" as="alternateBounds" />
          </mxGeometry>
        </mxCell>
        <mxCell id="_ZnmS-q5QcMvQ2T7AAOQ-80" value="FK" style="shape=tableRow;horizontal=0;startSize=30;swimlaneHead=0;swimlaneBody=0;fillColor=none;collapsible=0;dropTarget=0;points=[[0,0.5],[1,0.5]];portConstraint=eastwest;top=0;left=0;right=0;bottom=0;fontFamily=Tahoma;" parent="_ZnmS-q5QcMvQ2T7AAOQ-73" vertex="1">
          <mxGeometry y="90" width="150" height="30" as="geometry" />
        </mxCell>
        <mxCell id="_ZnmS-q5QcMvQ2T7AAOQ-81" value="&lt;div&gt;text&lt;/div&gt;" style="shape=partialRectangle;connectable=0;fillColor=none;top=0;left=0;bottom=0;right=0;editable=1;overflow=hidden;whiteSpace=wrap;html=1;fontFamily=Tahoma;" parent="_ZnmS-q5QcMvQ2T7AAOQ-80" vertex="1">
          <mxGeometry x="30" width="40" height="30" as="geometry">
            <mxRectangle width="40" height="30" as="alternateBounds" />
          </mxGeometry>
        </mxCell>
        <mxCell id="_ZnmS-q5QcMvQ2T7AAOQ-82" value="&lt;div&gt;&lt;b&gt;ageGroup&lt;/b&gt;&lt;/div&gt;" style="shape=partialRectangle;connectable=0;fillColor=none;top=0;left=0;bottom=0;right=0;align=left;spacingLeft=6;overflow=hidden;whiteSpace=wrap;html=1;fontFamily=Tahoma;" parent="_ZnmS-q5QcMvQ2T7AAOQ-80" vertex="1">
          <mxGeometry x="70" width="80" height="30" as="geometry">
            <mxRectangle width="80" height="30" as="alternateBounds" />
          </mxGeometry>
        </mxCell>
        <mxCell id="_ZnmS-q5QcMvQ2T7AAOQ-98" value="Qualification" style="shape=table;startSize=30;container=1;collapsible=1;childLayout=tableLayout;fixedRows=1;rowLines=0;fontStyle=1;align=center;resizeLast=1;html=1;fontFamily=Tahoma;" parent="1" vertex="1">
          <mxGeometry x="500" y="250" width="130" height="60" as="geometry" />
        </mxCell>
        <mxCell id="_ZnmS-q5QcMvQ2T7AAOQ-99" value="PK" style="shape=tableRow;horizontal=0;startSize=30;swimlaneHead=0;swimlaneBody=0;fillColor=none;collapsible=0;dropTarget=0;points=[[0,0.5],[1,0.5]];portConstraint=eastwest;top=0;left=0;right=0;bottom=1;fontFamily=Tahoma;fontStyle=1" parent="_ZnmS-q5QcMvQ2T7AAOQ-98" vertex="1">
          <mxGeometry y="30" width="130" height="30" as="geometry" />
        </mxCell>
        <mxCell id="_ZnmS-q5QcMvQ2T7AAOQ-100" value="&lt;b&gt;text&lt;/b&gt;" style="shape=partialRectangle;connectable=0;fillColor=none;top=0;left=0;bottom=0;right=0;fontStyle=0;overflow=hidden;whiteSpace=wrap;html=1;fontFamily=Tahoma;" parent="_ZnmS-q5QcMvQ2T7AAOQ-99" vertex="1">
          <mxGeometry x="30" width="40" height="30" as="geometry">
            <mxRectangle width="40" height="30" as="alternateBounds" />
          </mxGeometry>
        </mxCell>
        <mxCell id="_ZnmS-q5QcMvQ2T7AAOQ-101" value="name" style="shape=partialRectangle;connectable=0;fillColor=none;top=0;left=0;bottom=0;right=0;align=left;spacingLeft=6;fontStyle=5;overflow=hidden;whiteSpace=wrap;html=1;fontFamily=Tahoma;" parent="_ZnmS-q5QcMvQ2T7AAOQ-99" vertex="1">
          <mxGeometry x="70" width="60" height="30" as="geometry">
            <mxRectangle width="60" height="30" as="alternateBounds" />
          </mxGeometry>
        </mxCell>
        <mxCell id="_ZnmS-q5QcMvQ2T7AAOQ-113" value="School" style="shape=table;startSize=30;container=1;collapsible=1;childLayout=tableLayout;fixedRows=1;rowLines=0;fontStyle=1;align=center;resizeLast=1;html=1;fontFamily=Tahoma;" parent="1" vertex="1">
          <mxGeometry x="130" y="290" width="140" height="150" as="geometry" />
        </mxCell>
        <mxCell id="_ZnmS-q5QcMvQ2T7AAOQ-114" value="PK" style="shape=tableRow;horizontal=0;startSize=30;swimlaneHead=0;swimlaneBody=0;fillColor=none;collapsible=0;dropTarget=0;points=[[0,0.5],[1,0.5]];portConstraint=eastwest;top=0;left=0;right=0;bottom=1;fontFamily=Tahoma;fontStyle=1" parent="_ZnmS-q5QcMvQ2T7AAOQ-113" vertex="1">
          <mxGeometry y="30" width="140" height="30" as="geometry" />
        </mxCell>
        <mxCell id="_ZnmS-q5QcMvQ2T7AAOQ-115" value="&lt;b&gt;text&lt;/b&gt;" style="shape=partialRectangle;connectable=0;fillColor=none;top=0;left=0;bottom=0;right=0;fontStyle=0;overflow=hidden;whiteSpace=wrap;html=1;fontFamily=Tahoma;" parent="_ZnmS-q5QcMvQ2T7AAOQ-114" vertex="1">
          <mxGeometry x="30" width="40" height="30" as="geometry">
            <mxRectangle width="40" height="30" as="alternateBounds" />
          </mxGeometry>
        </mxCell>
        <mxCell id="_ZnmS-q5QcMvQ2T7AAOQ-116" value="name" style="shape=partialRectangle;connectable=0;fillColor=none;top=0;left=0;bottom=0;right=0;align=left;spacingLeft=6;fontStyle=5;overflow=hidden;whiteSpace=wrap;html=1;fontFamily=Tahoma;" parent="_ZnmS-q5QcMvQ2T7AAOQ-114" vertex="1">
          <mxGeometry x="70" width="70" height="30" as="geometry">
            <mxRectangle width="70" height="30" as="alternateBounds" />
          </mxGeometry>
        </mxCell>
        <mxCell id="_ZnmS-q5QcMvQ2T7AAOQ-120" value="" style="shape=tableRow;horizontal=0;startSize=30;swimlaneHead=0;swimlaneBody=0;fillColor=none;collapsible=0;dropTarget=0;points=[[0,0.5],[1,0.5]];portConstraint=eastwest;top=0;left=0;right=0;bottom=0;fontFamily=Tahoma;" parent="_ZnmS-q5QcMvQ2T7AAOQ-113" vertex="1">
          <mxGeometry y="60" width="140" height="30" as="geometry" />
        </mxCell>
        <mxCell id="_ZnmS-q5QcMvQ2T7AAOQ-121" value="text" style="shape=partialRectangle;connectable=0;fillColor=none;top=0;left=0;bottom=0;right=0;editable=1;overflow=hidden;whiteSpace=wrap;html=1;fontFamily=Tahoma;" parent="_ZnmS-q5QcMvQ2T7AAOQ-120" vertex="1">
          <mxGeometry x="30" width="40" height="30" as="geometry">
            <mxRectangle width="40" height="30" as="alternateBounds" />
          </mxGeometry>
        </mxCell>
        <mxCell id="_ZnmS-q5QcMvQ2T7AAOQ-122" value="address" style="shape=partialRectangle;connectable=0;fillColor=none;top=0;left=0;bottom=0;right=0;align=left;spacingLeft=6;overflow=hidden;whiteSpace=wrap;html=1;fontStyle=1;fontFamily=Tahoma;" parent="_ZnmS-q5QcMvQ2T7AAOQ-120" vertex="1">
          <mxGeometry x="70" width="70" height="30" as="geometry">
            <mxRectangle width="70" height="30" as="alternateBounds" />
          </mxGeometry>
        </mxCell>
        <mxCell id="_ZnmS-q5QcMvQ2T7AAOQ-123" value="" style="shape=tableRow;horizontal=0;startSize=30;swimlaneHead=0;swimlaneBody=0;fillColor=none;collapsible=0;dropTarget=0;points=[[0,0.5],[1,0.5]];portConstraint=eastwest;top=0;left=0;right=0;bottom=0;fontFamily=Tahoma;" parent="_ZnmS-q5QcMvQ2T7AAOQ-113" vertex="1">
          <mxGeometry y="90" width="140" height="30" as="geometry" />
        </mxCell>
        <mxCell id="_ZnmS-q5QcMvQ2T7AAOQ-124" value="text" style="shape=partialRectangle;connectable=0;fillColor=none;top=0;left=0;bottom=0;right=0;editable=1;overflow=hidden;whiteSpace=wrap;html=1;fontFamily=Tahoma;" parent="_ZnmS-q5QcMvQ2T7AAOQ-123" vertex="1">
          <mxGeometry x="30" width="40" height="30" as="geometry">
            <mxRectangle width="40" height="30" as="alternateBounds" />
          </mxGeometry>
        </mxCell>
        <mxCell id="_ZnmS-q5QcMvQ2T7AAOQ-125" value="phone" style="shape=partialRectangle;connectable=0;fillColor=none;top=0;left=0;bottom=0;right=0;align=left;spacingLeft=6;overflow=hidden;whiteSpace=wrap;html=1;fontStyle=1;fontFamily=Tahoma;" parent="_ZnmS-q5QcMvQ2T7AAOQ-123" vertex="1">
          <mxGeometry x="70" width="70" height="30" as="geometry">
            <mxRectangle width="70" height="30" as="alternateBounds" />
          </mxGeometry>
        </mxCell>
        <mxCell id="_ZnmS-q5QcMvQ2T7AAOQ-126" value="" style="shape=tableRow;horizontal=0;startSize=30;swimlaneHead=0;swimlaneBody=0;fillColor=none;collapsible=0;dropTarget=0;points=[[0,0.5],[1,0.5]];portConstraint=eastwest;top=0;left=0;right=0;bottom=0;fontFamily=Tahoma;" parent="_ZnmS-q5QcMvQ2T7AAOQ-113" vertex="1">
          <mxGeometry y="120" width="140" height="30" as="geometry" />
        </mxCell>
        <mxCell id="_ZnmS-q5QcMvQ2T7AAOQ-127" value="text" style="shape=partialRectangle;connectable=0;fillColor=none;top=0;left=0;bottom=0;right=0;fontStyle=0;overflow=hidden;whiteSpace=wrap;html=1;fontFamily=Tahoma;" parent="_ZnmS-q5QcMvQ2T7AAOQ-126" vertex="1">
          <mxGeometry x="30" width="40" height="30" as="geometry">
            <mxRectangle width="40" height="30" as="alternateBounds" />
          </mxGeometry>
        </mxCell>
        <mxCell id="_ZnmS-q5QcMvQ2T7AAOQ-128" value="email" style="shape=partialRectangle;connectable=0;fillColor=none;top=0;left=0;bottom=0;right=0;align=left;spacingLeft=6;fontStyle=1;overflow=hidden;whiteSpace=wrap;html=1;fontFamily=Tahoma;" parent="_ZnmS-q5QcMvQ2T7AAOQ-126" vertex="1">
          <mxGeometry x="70" width="70" height="30" as="geometry">
            <mxRectangle width="70" height="30" as="alternateBounds" />
          </mxGeometry>
        </mxCell>
        <mxCell id="_ZnmS-q5QcMvQ2T7AAOQ-133" style="edgeStyle=orthogonalEdgeStyle;rounded=0;orthogonalLoop=1;jettySize=auto;html=1;startArrow=ERzeroToOne;startFill=0;endArrow=ERzeroToMany;endFill=0;fontFamily=Tahoma;entryX=0.238;entryY=0;entryDx=0;entryDy=0;entryPerimeter=0;" parent="1" source="_ZnmS-q5QcMvQ2T7AAOQ-113" target="_ZnmS-q5QcMvQ2T7AAOQ-58" edge="1">
          <mxGeometry relative="1" as="geometry">
            <mxPoint x="79" y="540" as="sourcePoint" />
          </mxGeometry>
        </mxCell>
        <mxCell id="_ZnmS-q5QcMvQ2T7AAOQ-146" value="Person" style="shape=table;startSize=30;container=1;collapsible=1;childLayout=tableLayout;fixedRows=1;rowLines=0;fontStyle=1;align=center;resizeLast=1;html=1;fontFamily=Tahoma;" parent="1" vertex="1">
          <mxGeometry x="310" y="200" width="150" height="240" as="geometry" />
        </mxCell>
        <mxCell id="_ZnmS-q5QcMvQ2T7AAOQ-147" value="PK" style="shape=tableRow;horizontal=0;startSize=30;swimlaneHead=0;swimlaneBody=0;fillColor=none;collapsible=0;dropTarget=0;points=[[0,0.5],[1,0.5]];portConstraint=eastwest;top=0;left=0;right=0;bottom=1;fontFamily=Tahoma;fontStyle=1" parent="_ZnmS-q5QcMvQ2T7AAOQ-146" vertex="1">
          <mxGeometry y="30" width="150" height="30" as="geometry" />
        </mxCell>
        <mxCell id="_ZnmS-q5QcMvQ2T7AAOQ-148" value="&lt;b&gt;int&lt;/b&gt;" style="shape=partialRectangle;connectable=0;fillColor=none;top=0;left=0;bottom=0;right=0;fontStyle=0;overflow=hidden;whiteSpace=wrap;html=1;fontFamily=Tahoma;" parent="_ZnmS-q5QcMvQ2T7AAOQ-147" vertex="1">
          <mxGeometry x="30" width="40" height="30" as="geometry">
            <mxRectangle width="40" height="30" as="alternateBounds" />
          </mxGeometry>
        </mxCell>
        <mxCell id="_ZnmS-q5QcMvQ2T7AAOQ-149" value="personId" style="shape=partialRectangle;connectable=0;fillColor=none;top=0;left=0;bottom=0;right=0;align=left;spacingLeft=6;fontStyle=5;overflow=hidden;whiteSpace=wrap;html=1;fontFamily=Tahoma;" parent="_ZnmS-q5QcMvQ2T7AAOQ-147" vertex="1">
          <mxGeometry x="70" width="80" height="30" as="geometry">
            <mxRectangle width="80" height="30" as="alternateBounds" />
          </mxGeometry>
        </mxCell>
        <mxCell id="_ZnmS-q5QcMvQ2T7AAOQ-159" value="" style="shape=tableRow;horizontal=0;startSize=30;swimlaneHead=0;swimlaneBody=0;fillColor=none;collapsible=0;dropTarget=0;points=[[0,0.5],[1,0.5]];portConstraint=eastwest;top=0;left=0;right=0;bottom=0;fontFamily=Tahoma;" parent="_ZnmS-q5QcMvQ2T7AAOQ-146" vertex="1">
          <mxGeometry y="60" width="150" height="30" as="geometry" />
        </mxCell>
        <mxCell id="_ZnmS-q5QcMvQ2T7AAOQ-160" value="text" style="shape=partialRectangle;connectable=0;fillColor=none;top=0;left=0;bottom=0;right=0;fontStyle=0;overflow=hidden;whiteSpace=wrap;html=1;fontFamily=Tahoma;" parent="_ZnmS-q5QcMvQ2T7AAOQ-159" vertex="1">
          <mxGeometry x="30" width="40" height="30" as="geometry">
            <mxRectangle width="40" height="30" as="alternateBounds" />
          </mxGeometry>
        </mxCell>
        <mxCell id="_ZnmS-q5QcMvQ2T7AAOQ-161" value="firstName" style="shape=partialRectangle;connectable=0;fillColor=none;top=0;left=0;bottom=0;right=0;align=left;spacingLeft=6;fontStyle=1;overflow=hidden;whiteSpace=wrap;html=1;fontFamily=Tahoma;" parent="_ZnmS-q5QcMvQ2T7AAOQ-159" vertex="1">
          <mxGeometry x="70" width="80" height="30" as="geometry">
            <mxRectangle width="80" height="30" as="alternateBounds" />
          </mxGeometry>
        </mxCell>
        <mxCell id="_ZnmS-q5QcMvQ2T7AAOQ-150" value="" style="shape=tableRow;horizontal=0;startSize=30;swimlaneHead=0;swimlaneBody=0;fillColor=none;collapsible=0;dropTarget=0;points=[[0,0.5],[1,0.5]];portConstraint=eastwest;top=0;left=0;right=0;bottom=0;fontFamily=Tahoma;" parent="_ZnmS-q5QcMvQ2T7AAOQ-146" vertex="1">
          <mxGeometry y="90" width="150" height="30" as="geometry" />
        </mxCell>
        <mxCell id="_ZnmS-q5QcMvQ2T7AAOQ-151" value="text" style="shape=partialRectangle;connectable=0;fillColor=none;top=0;left=0;bottom=0;right=0;editable=1;overflow=hidden;whiteSpace=wrap;html=1;fontFamily=Tahoma;" parent="_ZnmS-q5QcMvQ2T7AAOQ-150" vertex="1">
          <mxGeometry x="30" width="40" height="30" as="geometry">
            <mxRectangle width="40" height="30" as="alternateBounds" />
          </mxGeometry>
        </mxCell>
        <mxCell id="_ZnmS-q5QcMvQ2T7AAOQ-152" value="lastName" style="shape=partialRectangle;connectable=0;fillColor=none;top=0;left=0;bottom=0;right=0;align=left;spacingLeft=6;overflow=hidden;whiteSpace=wrap;html=1;fontStyle=1;fontFamily=Tahoma;" parent="_ZnmS-q5QcMvQ2T7AAOQ-150" vertex="1">
          <mxGeometry x="70" width="80" height="30" as="geometry">
            <mxRectangle width="80" height="30" as="alternateBounds" />
          </mxGeometry>
        </mxCell>
        <mxCell id="_ZnmS-q5QcMvQ2T7AAOQ-153" value="" style="shape=tableRow;horizontal=0;startSize=30;swimlaneHead=0;swimlaneBody=0;fillColor=none;collapsible=0;dropTarget=0;points=[[0,0.5],[1,0.5]];portConstraint=eastwest;top=0;left=0;right=0;bottom=0;fontFamily=Tahoma;" parent="_ZnmS-q5QcMvQ2T7AAOQ-146" vertex="1">
          <mxGeometry y="120" width="150" height="30" as="geometry" />
        </mxCell>
        <mxCell id="_ZnmS-q5QcMvQ2T7AAOQ-154" value="text" style="shape=partialRectangle;connectable=0;fillColor=none;top=0;left=0;bottom=0;right=0;editable=1;overflow=hidden;whiteSpace=wrap;html=1;fontFamily=Tahoma;" parent="_ZnmS-q5QcMvQ2T7AAOQ-153" vertex="1">
          <mxGeometry x="30" width="40" height="30" as="geometry">
            <mxRectangle width="40" height="30" as="alternateBounds" />
          </mxGeometry>
        </mxCell>
        <mxCell id="_ZnmS-q5QcMvQ2T7AAOQ-155" value="address" style="shape=partialRectangle;connectable=0;fillColor=none;top=0;left=0;bottom=0;right=0;align=left;spacingLeft=6;overflow=hidden;whiteSpace=wrap;html=1;fontStyle=1;fontFamily=Tahoma;" parent="_ZnmS-q5QcMvQ2T7AAOQ-153" vertex="1">
          <mxGeometry x="70" width="80" height="30" as="geometry">
            <mxRectangle width="80" height="30" as="alternateBounds" />
          </mxGeometry>
        </mxCell>
        <mxCell id="_ZnmS-q5QcMvQ2T7AAOQ-156" value="" style="shape=tableRow;horizontal=0;startSize=30;swimlaneHead=0;swimlaneBody=0;fillColor=none;collapsible=0;dropTarget=0;points=[[0,0.5],[1,0.5]];portConstraint=eastwest;top=0;left=0;right=0;bottom=0;fontFamily=Tahoma;" parent="_ZnmS-q5QcMvQ2T7AAOQ-146" vertex="1">
          <mxGeometry y="150" width="150" height="30" as="geometry" />
        </mxCell>
        <mxCell id="_ZnmS-q5QcMvQ2T7AAOQ-157" value="text" style="shape=partialRectangle;connectable=0;fillColor=none;top=0;left=0;bottom=0;right=0;editable=1;overflow=hidden;whiteSpace=wrap;html=1;fontFamily=Tahoma;" parent="_ZnmS-q5QcMvQ2T7AAOQ-156" vertex="1">
          <mxGeometry x="30" width="40" height="30" as="geometry">
            <mxRectangle width="40" height="30" as="alternateBounds" />
          </mxGeometry>
        </mxCell>
        <mxCell id="_ZnmS-q5QcMvQ2T7AAOQ-158" value="phone" style="shape=partialRectangle;connectable=0;fillColor=none;top=0;left=0;bottom=0;right=0;align=left;spacingLeft=6;overflow=hidden;whiteSpace=wrap;html=1;fontStyle=1;fontFamily=Tahoma;" parent="_ZnmS-q5QcMvQ2T7AAOQ-156" vertex="1">
          <mxGeometry x="70" width="80" height="30" as="geometry">
            <mxRectangle width="80" height="30" as="alternateBounds" />
          </mxGeometry>
        </mxCell>
        <mxCell id="mW_81zypOUTz74yxbdtH-28" value="" style="shape=tableRow;horizontal=0;startSize=30;swimlaneHead=0;swimlaneBody=0;fillColor=none;collapsible=0;dropTarget=0;points=[[0,0.5],[1,0.5]];portConstraint=eastwest;top=0;left=0;right=0;bottom=0;fontFamily=Tahoma;" parent="_ZnmS-q5QcMvQ2T7AAOQ-146" vertex="1">
          <mxGeometry y="180" width="150" height="30" as="geometry" />
        </mxCell>
        <mxCell id="mW_81zypOUTz74yxbdtH-29" value="text" style="shape=partialRectangle;connectable=0;fillColor=none;top=0;left=0;bottom=0;right=0;fontStyle=0;overflow=hidden;whiteSpace=wrap;html=1;fontFamily=Tahoma;" parent="mW_81zypOUTz74yxbdtH-28" vertex="1">
          <mxGeometry x="30" width="40" height="30" as="geometry">
            <mxRectangle width="40" height="30" as="alternateBounds" />
          </mxGeometry>
        </mxCell>
        <mxCell id="mW_81zypOUTz74yxbdtH-30" value="email" style="shape=partialRectangle;connectable=0;fillColor=none;top=0;left=0;bottom=0;right=0;align=left;spacingLeft=6;fontStyle=1;overflow=hidden;whiteSpace=wrap;html=1;fontFamily=Tahoma;" parent="mW_81zypOUTz74yxbdtH-28" vertex="1">
          <mxGeometry x="70" width="80" height="30" as="geometry">
            <mxRectangle width="80" height="30" as="alternateBounds" />
          </mxGeometry>
        </mxCell>
        <mxCell id="_ZnmS-q5QcMvQ2T7AAOQ-36" value="" style="shape=tableRow;horizontal=0;startSize=30;swimlaneHead=0;swimlaneBody=0;fillColor=none;collapsible=0;dropTarget=0;points=[[0,0.5],[1,0.5]];portConstraint=eastwest;top=0;left=0;right=0;bottom=0;fontFamily=Tahoma;" parent="_ZnmS-q5QcMvQ2T7AAOQ-146" vertex="1">
          <mxGeometry y="210" width="150" height="30" as="geometry" />
        </mxCell>
        <mxCell id="_ZnmS-q5QcMvQ2T7AAOQ-37" value="blob" style="shape=partialRectangle;connectable=0;fillColor=none;top=0;left=0;bottom=0;right=0;fontStyle=0;overflow=hidden;whiteSpace=wrap;html=1;fontFamily=Tahoma;" parent="_ZnmS-q5QcMvQ2T7AAOQ-36" vertex="1">
          <mxGeometry x="30" width="40" height="30" as="geometry">
            <mxRectangle width="40" height="30" as="alternateBounds" />
          </mxGeometry>
        </mxCell>
        <mxCell id="_ZnmS-q5QcMvQ2T7AAOQ-38" value="Photo" style="shape=partialRectangle;connectable=0;fillColor=none;top=0;left=0;bottom=0;right=0;align=left;spacingLeft=6;fontStyle=0;overflow=hidden;whiteSpace=wrap;html=1;fontFamily=Tahoma;" parent="_ZnmS-q5QcMvQ2T7AAOQ-36" vertex="1">
          <mxGeometry x="70" width="80" height="30" as="geometry">
            <mxRectangle width="80" height="30" as="alternateBounds" />
          </mxGeometry>
        </mxCell>
        <mxCell id="1CGnsKS_cR44dBJx2GGT-1" value="" style="edgeStyle=orthogonalEdgeStyle;rounded=0;orthogonalLoop=1;jettySize=auto;html=1;startArrow=ERmandOne;startFill=0;endArrow=ERmandOne;endFill=0;fontFamily=Tahoma;entryX=0.133;entryY=1;entryDx=0;entryDy=0;entryPerimeter=0;exitX=0.857;exitY=0;exitDx=0;exitDy=0;exitPerimeter=0;" parent="1" source="_ZnmS-q5QcMvQ2T7AAOQ-58" edge="1">
          <mxGeometry relative="1" as="geometry">
            <mxPoint x="330" y="470" as="sourcePoint" />
            <mxPoint x="329.9499999999998" y="440" as="targetPoint" />
            <Array as="points" />
          </mxGeometry>
        </mxCell>
        <mxCell id="1CGnsKS_cR44dBJx2GGT-3" value="&lt;div&gt;Member&lt;/div&gt;" style="shape=table;startSize=30;container=1;collapsible=1;childLayout=tableLayout;fixedRows=1;rowLines=0;fontStyle=1;align=center;resizeLast=1;html=1;fontFamily=Tahoma;" parent="1" vertex="1">
          <mxGeometry x="140" y="650" width="230" height="160" as="geometry" />
        </mxCell>
        <mxCell id="1CGnsKS_cR44dBJx2GGT-34" value="PK" style="shape=tableRow;horizontal=0;startSize=30;swimlaneHead=0;swimlaneBody=0;fillColor=none;collapsible=0;dropTarget=0;points=[[0,0.5],[1,0.5]];portConstraint=eastwest;top=0;left=0;right=0;bottom=1;fontStyle=1;fontFamily=Tahoma;" parent="1CGnsKS_cR44dBJx2GGT-3" vertex="1">
          <mxGeometry y="30" width="230" height="40" as="geometry" />
        </mxCell>
        <mxCell id="1CGnsKS_cR44dBJx2GGT-35" value="&lt;b&gt;text&lt;/b&gt;" style="shape=partialRectangle;connectable=0;fillColor=none;top=0;left=0;bottom=0;right=0;fontStyle=0;overflow=hidden;whiteSpace=wrap;html=1;fontFamily=Tahoma;" parent="1CGnsKS_cR44dBJx2GGT-34" vertex="1">
          <mxGeometry x="30" width="40" height="40" as="geometry">
            <mxRectangle width="40" height="40" as="alternateBounds" />
          </mxGeometry>
        </mxCell>
        <mxCell id="1CGnsKS_cR44dBJx2GGT-36" value="memberId = &lt;br&gt;teamName + shirtNum" style="shape=partialRectangle;connectable=0;fillColor=none;top=0;left=0;bottom=0;right=0;align=left;spacingLeft=6;fontStyle=5;overflow=hidden;whiteSpace=wrap;html=1;fontFamily=Tahoma;" parent="1CGnsKS_cR44dBJx2GGT-34" vertex="1">
          <mxGeometry x="70" width="160" height="40" as="geometry">
            <mxRectangle width="160" height="40" as="alternateBounds" />
          </mxGeometry>
        </mxCell>
        <mxCell id="1CGnsKS_cR44dBJx2GGT-7" value="" style="shape=tableRow;horizontal=0;startSize=30;swimlaneHead=0;swimlaneBody=0;fillColor=none;collapsible=0;dropTarget=0;points=[[0,0.5],[1,0.5]];portConstraint=eastwest;top=0;left=0;right=0;bottom=0;fontFamily=Tahoma;" parent="1CGnsKS_cR44dBJx2GGT-3" vertex="1">
          <mxGeometry y="70" width="230" height="30" as="geometry" />
        </mxCell>
        <mxCell id="1CGnsKS_cR44dBJx2GGT-8" value="int" style="shape=partialRectangle;connectable=0;fillColor=none;top=0;left=0;bottom=0;right=0;fontStyle=0;overflow=hidden;whiteSpace=wrap;html=1;fontFamily=Tahoma;" parent="1CGnsKS_cR44dBJx2GGT-7" vertex="1">
          <mxGeometry x="30" width="40" height="30" as="geometry">
            <mxRectangle width="40" height="30" as="alternateBounds" />
          </mxGeometry>
        </mxCell>
        <mxCell id="1CGnsKS_cR44dBJx2GGT-9" value="&lt;div&gt;&lt;b&gt;&lt;span&gt;shirtNum&lt;/span&gt;&lt;/b&gt;&lt;/div&gt;" style="shape=partialRectangle;connectable=0;fillColor=none;top=0;left=0;bottom=0;right=0;align=left;spacingLeft=6;fontStyle=0;overflow=hidden;whiteSpace=wrap;html=1;fontFamily=Tahoma;" parent="1CGnsKS_cR44dBJx2GGT-7" vertex="1">
          <mxGeometry x="70" width="160" height="30" as="geometry">
            <mxRectangle width="160" height="30" as="alternateBounds" />
          </mxGeometry>
        </mxCell>
        <mxCell id="FFgvEOGn2QU7lJat-oed-39" value="FK" style="shape=tableRow;horizontal=0;startSize=30;swimlaneHead=0;swimlaneBody=0;fillColor=none;collapsible=0;dropTarget=0;points=[[0,0.5],[1,0.5]];portConstraint=eastwest;top=0;left=0;right=0;bottom=0;fontFamily=Tahoma;" parent="1CGnsKS_cR44dBJx2GGT-3" vertex="1">
          <mxGeometry y="100" width="230" height="30" as="geometry" />
        </mxCell>
        <mxCell id="FFgvEOGn2QU7lJat-oed-40" value="int" style="shape=partialRectangle;connectable=0;fillColor=none;top=0;left=0;bottom=0;right=0;fontStyle=0;overflow=hidden;whiteSpace=wrap;html=1;fontFamily=Tahoma;" parent="FFgvEOGn2QU7lJat-oed-39" vertex="1">
          <mxGeometry x="30" width="40" height="30" as="geometry">
            <mxRectangle width="40" height="30" as="alternateBounds" />
          </mxGeometry>
        </mxCell>
        <mxCell id="FFgvEOGn2QU7lJat-oed-41" value="&lt;b&gt;playerId&lt;/b&gt;" style="shape=partialRectangle;connectable=0;fillColor=none;top=0;left=0;bottom=0;right=0;align=left;spacingLeft=6;fontStyle=0;overflow=hidden;whiteSpace=wrap;html=1;fontFamily=Tahoma;" parent="FFgvEOGn2QU7lJat-oed-39" vertex="1">
          <mxGeometry x="70" width="160" height="30" as="geometry">
            <mxRectangle width="160" height="30" as="alternateBounds" />
          </mxGeometry>
        </mxCell>
        <mxCell id="FFgvEOGn2QU7lJat-oed-53" value="FK" style="shape=tableRow;horizontal=0;startSize=30;swimlaneHead=0;swimlaneBody=0;fillColor=none;collapsible=0;dropTarget=0;points=[[0,0.5],[1,0.5]];portConstraint=eastwest;top=0;left=0;right=0;bottom=0;fontFamily=Tahoma;" parent="1CGnsKS_cR44dBJx2GGT-3" vertex="1">
          <mxGeometry y="130" width="230" height="30" as="geometry" />
        </mxCell>
        <mxCell id="FFgvEOGn2QU7lJat-oed-54" value="text" style="shape=partialRectangle;connectable=0;fillColor=none;top=0;left=0;bottom=0;right=0;fontStyle=0;overflow=hidden;whiteSpace=wrap;html=1;fontFamily=Tahoma;" parent="FFgvEOGn2QU7lJat-oed-53" vertex="1">
          <mxGeometry x="30" width="40" height="30" as="geometry">
            <mxRectangle width="40" height="30" as="alternateBounds" />
          </mxGeometry>
        </mxCell>
        <mxCell id="FFgvEOGn2QU7lJat-oed-55" value="&lt;b&gt;teamName&lt;/b&gt;" style="shape=partialRectangle;connectable=0;fillColor=none;top=0;left=0;bottom=0;right=0;align=left;spacingLeft=6;fontStyle=0;overflow=hidden;whiteSpace=wrap;html=1;fontFamily=Tahoma;" parent="FFgvEOGn2QU7lJat-oed-53" vertex="1">
          <mxGeometry x="70" width="160" height="30" as="geometry">
            <mxRectangle width="160" height="30" as="alternateBounds" />
          </mxGeometry>
        </mxCell>
        <mxCell id="mkPjoCtJjhYTXi9-BLOz-30" style="edgeStyle=orthogonalEdgeStyle;rounded=0;orthogonalLoop=1;jettySize=auto;html=1;endArrow=ERmandOne;endFill=0;startArrow=ERzeroToMany;startFill=0;fontFamily=Tahoma;" parent="1" edge="1">
          <mxGeometry relative="1" as="geometry">
            <mxPoint x="440" y="770" as="targetPoint" />
            <Array as="points">
              <mxPoint x="410" y="770" />
              <mxPoint x="410" y="770" />
            </Array>
            <mxPoint x="370" y="770" as="sourcePoint" />
          </mxGeometry>
        </mxCell>
        <mxCell id="mkPjoCtJjhYTXi9-BLOz-31" value="" style="rounded=1;whiteSpace=wrap;html=1;fillColor=none;arcSize=0;fontFamily=Tahoma;" parent="1" vertex="1">
          <mxGeometry x="120" y="40" width="540" height="840" as="geometry" />
        </mxCell>
        <mxCell id="EbcCoRxKggszyLiJfOIN-1" value="" style="triangle;whiteSpace=wrap;html=1;fontFamily=Tahoma;" parent="1" vertex="1">
          <mxGeometry y="180" width="60" height="80" as="geometry" />
        </mxCell>
        <mxCell id="EbcCoRxKggszyLiJfOIN-2" value="" style="triangle;whiteSpace=wrap;html=1;rotation=-180;fontFamily=Tahoma;" parent="1" vertex="1">
          <mxGeometry x="770" y="210" width="60" height="80" as="geometry" />
        </mxCell>
        <mxCell id="_ZnmS-q5QcMvQ2T7AAOQ-14" style="edgeStyle=orthogonalEdgeStyle;rounded=0;orthogonalLoop=1;jettySize=auto;html=1;startArrow=ERmandOne;startFill=0;endArrow=ERoneToMany;endFill=0;fontFamily=Tahoma;exitX=0.267;exitY=0;exitDx=0;exitDy=0;exitPerimeter=0;" parent="1" source="_ZnmS-q5QcMvQ2T7AAOQ-146" edge="1">
          <mxGeometry relative="1" as="geometry">
            <mxPoint x="350" y="190" as="sourcePoint" />
            <mxPoint x="350" y="160" as="targetPoint" />
            <Array as="points">
              <mxPoint x="350" y="200" />
              <mxPoint x="350" y="200" />
            </Array>
          </mxGeometry>
        </mxCell>
        <mxCell id="_ZnmS-q5QcMvQ2T7AAOQ-15" value="Guardian Of" style="edgeLabel;html=1;align=center;verticalAlign=middle;resizable=0;points=[];fontFamily=Tahoma;rotation=0;" parent="_ZnmS-q5QcMvQ2T7AAOQ-14" connectable="0" vertex="1">
          <mxGeometry x="0.2" relative="1" as="geometry">
            <mxPoint x="-40" y="4" as="offset" />
          </mxGeometry>
        </mxCell>
        <mxCell id="RY118zsN6DzWHHV39r9Y-2" value="GuardianPersons" style="shape=table;startSize=30;container=1;collapsible=1;childLayout=tableLayout;fixedRows=1;rowLines=0;fontStyle=1;align=center;resizeLast=1;html=1;fontFamily=Tahoma;" vertex="1" parent="1">
          <mxGeometry x="310" y="50" width="150" height="110" as="geometry" />
        </mxCell>
        <mxCell id="RY118zsN6DzWHHV39r9Y-3" value="FK" style="shape=tableRow;horizontal=0;startSize=30;swimlaneHead=0;swimlaneBody=0;fillColor=none;collapsible=0;dropTarget=0;points=[[0,0.5],[1,0.5]];portConstraint=eastwest;top=0;left=0;right=0;bottom=1;fontFamily=Tahoma;fontStyle=0" vertex="1" parent="RY118zsN6DzWHHV39r9Y-2">
          <mxGeometry y="30" width="150" height="40" as="geometry" />
        </mxCell>
        <mxCell id="RY118zsN6DzWHHV39r9Y-4" value="int" style="shape=partialRectangle;connectable=0;fillColor=none;top=0;left=0;bottom=0;right=0;fontStyle=0;overflow=hidden;whiteSpace=wrap;html=1;fontFamily=Tahoma;" vertex="1" parent="RY118zsN6DzWHHV39r9Y-3">
          <mxGeometry x="30" width="30" height="40" as="geometry">
            <mxRectangle width="30" height="40" as="alternateBounds" />
          </mxGeometry>
        </mxCell>
        <mxCell id="RY118zsN6DzWHHV39r9Y-5" value="childId = personId" style="shape=partialRectangle;connectable=0;fillColor=none;top=0;left=0;bottom=0;right=0;align=left;spacingLeft=6;fontStyle=1;overflow=hidden;whiteSpace=wrap;html=1;fontFamily=Tahoma;" vertex="1" parent="RY118zsN6DzWHHV39r9Y-3">
          <mxGeometry x="60" width="90" height="40" as="geometry">
            <mxRectangle width="90" height="40" as="alternateBounds" />
          </mxGeometry>
        </mxCell>
        <mxCell id="RY118zsN6DzWHHV39r9Y-6" value="FK" style="shape=tableRow;horizontal=0;startSize=30;swimlaneHead=0;swimlaneBody=0;fillColor=none;collapsible=0;dropTarget=0;points=[[0,0.5],[1,0.5]];portConstraint=eastwest;top=0;left=0;right=0;bottom=0;fontFamily=Tahoma;fontStyle=0" vertex="1" parent="RY118zsN6DzWHHV39r9Y-2">
          <mxGeometry y="70" width="150" height="40" as="geometry" />
        </mxCell>
        <mxCell id="RY118zsN6DzWHHV39r9Y-7" value="int" style="shape=partialRectangle;connectable=0;fillColor=none;top=0;left=0;bottom=0;right=0;editable=1;overflow=hidden;whiteSpace=wrap;html=1;fontFamily=Tahoma;" vertex="1" parent="RY118zsN6DzWHHV39r9Y-6">
          <mxGeometry x="30" width="30" height="40" as="geometry">
            <mxRectangle width="30" height="40" as="alternateBounds" />
          </mxGeometry>
        </mxCell>
        <mxCell id="RY118zsN6DzWHHV39r9Y-8" value="guardianId&lt;br&gt; = personId" style="shape=partialRectangle;connectable=0;fillColor=none;top=0;left=0;bottom=0;right=0;align=left;spacingLeft=6;overflow=hidden;whiteSpace=wrap;html=1;fontStyle=1;fontFamily=Tahoma;" vertex="1" parent="RY118zsN6DzWHHV39r9Y-6">
          <mxGeometry x="60" width="90" height="40" as="geometry">
            <mxRectangle width="90" height="40" as="alternateBounds" />
          </mxGeometry>
        </mxCell>
        <mxCell id="RY118zsN6DzWHHV39r9Y-15" style="edgeStyle=orthogonalEdgeStyle;rounded=0;orthogonalLoop=1;jettySize=auto;html=1;startArrow=ERmandOne;startFill=0;endArrow=ERzeroToMany;endFill=0;fontFamily=Tahoma;exitX=0.733;exitY=0;exitDx=0;exitDy=0;exitPerimeter=0;" edge="1" parent="1" source="_ZnmS-q5QcMvQ2T7AAOQ-146">
          <mxGeometry relative="1" as="geometry">
            <mxPoint x="420" y="190" as="sourcePoint" />
            <mxPoint x="420" y="160" as="targetPoint" />
            <Array as="points">
              <mxPoint x="420" y="180" />
            </Array>
          </mxGeometry>
        </mxCell>
        <mxCell id="RY118zsN6DzWHHV39r9Y-16" value="&lt;div&gt;Cared For By&lt;/div&gt;" style="edgeLabel;html=1;align=center;verticalAlign=middle;resizable=0;points=[];fontFamily=Tahoma;rotation=0;" connectable="0" vertex="1" parent="RY118zsN6DzWHHV39r9Y-15">
          <mxGeometry x="0.2" relative="1" as="geometry">
            <mxPoint x="40" y="4" as="offset" />
          </mxGeometry>
        </mxCell>
        <mxCell id="RY118zsN6DzWHHV39r9Y-17" value="TeamCoaches" style="shape=table;startSize=30;container=1;collapsible=1;childLayout=tableLayout;fixedRows=1;rowLines=0;fontStyle=1;align=center;resizeLast=1;html=1;fontFamily=Tahoma;" vertex="1" parent="1">
          <mxGeometry x="440" y="620" width="150" height="90" as="geometry" />
        </mxCell>
        <mxCell id="RY118zsN6DzWHHV39r9Y-18" value="FK" style="shape=tableRow;horizontal=0;startSize=30;swimlaneHead=0;swimlaneBody=0;fillColor=none;collapsible=0;dropTarget=0;points=[[0,0.5],[1,0.5]];portConstraint=eastwest;top=0;left=0;right=0;bottom=1;fontFamily=Tahoma;fontStyle=0" vertex="1" parent="RY118zsN6DzWHHV39r9Y-17">
          <mxGeometry y="30" width="150" height="30" as="geometry" />
        </mxCell>
        <mxCell id="RY118zsN6DzWHHV39r9Y-19" value="text" style="shape=partialRectangle;connectable=0;fillColor=none;top=0;left=0;bottom=0;right=0;fontStyle=0;overflow=hidden;whiteSpace=wrap;html=1;fontFamily=Tahoma;" vertex="1" parent="RY118zsN6DzWHHV39r9Y-18">
          <mxGeometry x="30" width="40" height="30" as="geometry">
            <mxRectangle width="40" height="30" as="alternateBounds" />
          </mxGeometry>
        </mxCell>
        <mxCell id="RY118zsN6DzWHHV39r9Y-20" value="teamName" style="shape=partialRectangle;connectable=0;fillColor=none;top=0;left=0;bottom=0;right=0;align=left;spacingLeft=6;fontStyle=1;overflow=hidden;whiteSpace=wrap;html=1;fontFamily=Tahoma;" vertex="1" parent="RY118zsN6DzWHHV39r9Y-18">
          <mxGeometry x="70" width="80" height="30" as="geometry">
            <mxRectangle width="80" height="30" as="alternateBounds" />
          </mxGeometry>
        </mxCell>
        <mxCell id="RY118zsN6DzWHHV39r9Y-21" value="FK" style="shape=tableRow;horizontal=0;startSize=30;swimlaneHead=0;swimlaneBody=0;fillColor=none;collapsible=0;dropTarget=0;points=[[0,0.5],[1,0.5]];portConstraint=eastwest;top=0;left=0;right=0;bottom=0;fontFamily=Tahoma;fontStyle=0" vertex="1" parent="RY118zsN6DzWHHV39r9Y-17">
          <mxGeometry y="60" width="150" height="30" as="geometry" />
        </mxCell>
        <mxCell id="RY118zsN6DzWHHV39r9Y-22" value="int" style="shape=partialRectangle;connectable=0;fillColor=none;top=0;left=0;bottom=0;right=0;editable=1;overflow=hidden;whiteSpace=wrap;html=1;fontFamily=Tahoma;" vertex="1" parent="RY118zsN6DzWHHV39r9Y-21">
          <mxGeometry x="30" width="40" height="30" as="geometry">
            <mxRectangle width="40" height="30" as="alternateBounds" />
          </mxGeometry>
        </mxCell>
        <mxCell id="RY118zsN6DzWHHV39r9Y-23" value="coachId" style="shape=partialRectangle;connectable=0;fillColor=none;top=0;left=0;bottom=0;right=0;align=left;spacingLeft=6;overflow=hidden;whiteSpace=wrap;html=1;fontStyle=1;fontFamily=Tahoma;" vertex="1" parent="RY118zsN6DzWHHV39r9Y-21">
          <mxGeometry x="70" width="80" height="30" as="geometry">
            <mxRectangle width="80" height="30" as="alternateBounds" />
          </mxGeometry>
        </mxCell>
        <mxCell id="RY118zsN6DzWHHV39r9Y-24" value="" style="endArrow=ERmandOne;html=1;rounded=0;edgeStyle=orthogonalEdgeStyle;exitX=0.533;exitY=0;exitDx=0;exitDy=0;exitPerimeter=0;endFill=0;startArrow=ERzeroToMany;startFill=0;" edge="1" parent="1" source="RY118zsN6DzWHHV39r9Y-17">
          <mxGeometry width="50" height="50" relative="1" as="geometry">
            <mxPoint x="430" y="700" as="sourcePoint" />
            <mxPoint x="520" y="580" as="targetPoint" />
          </mxGeometry>
        </mxCell>
        <mxCell id="RY118zsN6DzWHHV39r9Y-25" value="" style="endArrow=ERmandOne;html=1;rounded=0;edgeStyle=orthogonalEdgeStyle;endFill=0;startArrow=ERoneToMany;startFill=0;entryX=0.533;entryY=0;entryDx=0;entryDy=0;entryPerimeter=0;" edge="1" parent="1" target="_ZnmS-q5QcMvQ2T7AAOQ-73">
          <mxGeometry width="50" height="50" relative="1" as="geometry">
            <mxPoint x="520" y="710" as="sourcePoint" />
            <mxPoint x="530" y="730" as="targetPoint" />
            <Array as="points">
              <mxPoint x="520" y="750" />
            </Array>
          </mxGeometry>
        </mxCell>
        <mxCell id="RY118zsN6DzWHHV39r9Y-26" value="CoachQualifications" style="shape=table;startSize=30;container=1;collapsible=1;childLayout=tableLayout;fixedRows=1;rowLines=0;fontStyle=1;align=center;resizeLast=1;html=1;fontFamily=Tahoma;" vertex="1" parent="1">
          <mxGeometry x="500" y="350" width="150" height="90" as="geometry" />
        </mxCell>
        <mxCell id="RY118zsN6DzWHHV39r9Y-27" value="FK" style="shape=tableRow;horizontal=0;startSize=30;swimlaneHead=0;swimlaneBody=0;fillColor=none;collapsible=0;dropTarget=0;points=[[0,0.5],[1,0.5]];portConstraint=eastwest;top=0;left=0;right=0;bottom=1;fontFamily=Tahoma;fontStyle=0" vertex="1" parent="RY118zsN6DzWHHV39r9Y-26">
          <mxGeometry y="30" width="150" height="30" as="geometry" />
        </mxCell>
        <mxCell id="RY118zsN6DzWHHV39r9Y-28" value="int" style="shape=partialRectangle;connectable=0;fillColor=none;top=0;left=0;bottom=0;right=0;fontStyle=0;overflow=hidden;whiteSpace=wrap;html=1;fontFamily=Tahoma;" vertex="1" parent="RY118zsN6DzWHHV39r9Y-27">
          <mxGeometry x="30" width="40" height="30" as="geometry">
            <mxRectangle width="40" height="30" as="alternateBounds" />
          </mxGeometry>
        </mxCell>
        <mxCell id="RY118zsN6DzWHHV39r9Y-29" value="coachId" style="shape=partialRectangle;connectable=0;fillColor=none;top=0;left=0;bottom=0;right=0;align=left;spacingLeft=6;fontStyle=1;overflow=hidden;whiteSpace=wrap;html=1;fontFamily=Tahoma;" vertex="1" parent="RY118zsN6DzWHHV39r9Y-27">
          <mxGeometry x="70" width="80" height="30" as="geometry">
            <mxRectangle width="80" height="30" as="alternateBounds" />
          </mxGeometry>
        </mxCell>
        <mxCell id="RY118zsN6DzWHHV39r9Y-30" value="FK" style="shape=tableRow;horizontal=0;startSize=30;swimlaneHead=0;swimlaneBody=0;fillColor=none;collapsible=0;dropTarget=0;points=[[0,0.5],[1,0.5]];portConstraint=eastwest;top=0;left=0;right=0;bottom=0;fontFamily=Tahoma;fontStyle=0" vertex="1" parent="RY118zsN6DzWHHV39r9Y-26">
          <mxGeometry y="60" width="150" height="30" as="geometry" />
        </mxCell>
        <mxCell id="RY118zsN6DzWHHV39r9Y-31" value="text" style="shape=partialRectangle;connectable=0;fillColor=none;top=0;left=0;bottom=0;right=0;editable=1;overflow=hidden;whiteSpace=wrap;html=1;fontFamily=Tahoma;" vertex="1" parent="RY118zsN6DzWHHV39r9Y-30">
          <mxGeometry x="30" width="40" height="30" as="geometry">
            <mxRectangle width="40" height="30" as="alternateBounds" />
          </mxGeometry>
        </mxCell>
        <mxCell id="RY118zsN6DzWHHV39r9Y-32" value="qualName" style="shape=partialRectangle;connectable=0;fillColor=none;top=0;left=0;bottom=0;right=0;align=left;spacingLeft=6;overflow=hidden;whiteSpace=wrap;html=1;fontStyle=1;fontFamily=Tahoma;" vertex="1" parent="RY118zsN6DzWHHV39r9Y-30">
          <mxGeometry x="70" width="80" height="30" as="geometry">
            <mxRectangle width="80" height="30" as="alternateBounds" />
          </mxGeometry>
        </mxCell>
        <mxCell id="RY118zsN6DzWHHV39r9Y-33" value="" style="edgeStyle=orthogonalEdgeStyle;rounded=0;orthogonalLoop=1;jettySize=auto;html=1;startArrow=ERzeroToMany;startFill=0;endArrow=ERmandOne;endFill=0;fontFamily=Tahoma;" edge="1" parent="1">
          <mxGeometry relative="1" as="geometry">
            <mxPoint x="570" y="350" as="sourcePoint" />
            <mxPoint x="570" y="310" as="targetPoint" />
            <Array as="points">
              <mxPoint x="570" y="330" />
              <mxPoint x="570" y="330" />
            </Array>
          </mxGeometry>
        </mxCell>
      </root>
    </mxGraphModel>
  </diagram>
</mxfile>
